<svg width="354" height="97" viewBox="0 0 354 97" fill="none" xmlns="http://www.w3.org/2000/svg">
<path d="M5.00148 70V24.2073H22.0195C29.6841 24.2073 35.5949 26.1775 39.752 30.1181C43.9524 34.0586 46.0526 39.7097 46.0526 47.0712C46.0526 54.3893 43.9524 60.0403 39.752 64.0242C35.5949 68.0081 29.6841 70 22.0195 70H5.00148ZM13.3156 63.1148H21.4999C32.0657 63.1148 37.3487 57.7669 37.3487 47.0712C37.3487 36.4187 32.0657 31.0924 21.4999 31.0924H13.3156V63.1148ZM66.6547 70.6495C63.3637 70.6495 60.5057 69.9783 58.0807 68.636C55.6558 67.2936 53.7721 65.3882 52.4297 62.92C51.0873 60.4084 50.4161 57.4638 50.4161 54.0862C50.4161 50.7086 51.0873 47.7856 52.4297 45.3174C53.7721 42.8491 55.6558 40.9438 58.0807 39.6014C60.5057 38.259 63.3637 37.5878 66.6547 37.5878C69.9457 37.5878 72.8037 38.259 75.2287 39.6014C77.6536 40.9438 79.5373 42.8491 80.8797 45.3174C82.2221 47.7856 82.8933 50.7086 82.8933 54.0862C82.8933 57.4638 82.2221 60.4084 80.8797 62.92C79.5373 65.3882 77.6536 67.2936 75.2287 68.636C72.8037 69.9783 69.9457 70.6495 66.6547 70.6495ZM66.6547 64.4789C69.0797 64.4789 71.0283 63.6128 72.5006 61.8807C73.9729 60.1053 74.709 57.5071 74.709 54.0862C74.709 50.622 73.9729 48.0455 72.5006 46.3567C71.0283 44.6245 69.0797 43.7585 66.6547 43.7585C64.2297 43.7585 62.2811 44.6245 60.8088 46.3567C59.3365 48.0455 58.6004 50.622 58.6004 54.0862C58.6004 57.5071 59.3365 60.1053 60.8088 61.8807C62.2811 63.6128 64.2297 64.4789 66.6547 64.4789ZM88.1956 70V38.2374H96.12V43.1089C97.0727 41.3768 98.3934 40.0344 100.082 39.0818C101.771 38.0858 103.72 37.5878 105.928 37.5878C110.691 37.5878 113.809 39.6664 115.282 43.8234C116.278 41.8748 117.706 40.3592 119.569 39.2766C121.431 38.1508 123.552 37.5878 125.934 37.5878C133.079 37.5878 136.651 41.9398 136.651 50.6436V70H128.532V50.9684C128.532 48.5434 128.121 46.768 127.298 45.6422C126.519 44.5163 125.176 43.9533 123.271 43.9533C121.149 43.9533 119.482 44.7111 118.269 46.2267C117.057 47.699 116.451 49.7559 116.451 52.3974V70H108.331V50.9684C108.331 48.5434 107.92 46.768 107.097 45.6422C106.318 44.5163 104.997 43.9533 103.135 43.9533C101.013 43.9533 99.3461 44.7111 98.1336 46.2267C96.9211 47.699 96.3149 49.7559 96.3149 52.3974V70H88.1956ZM142.979 31.4172V23.4928H152.073V31.4172H142.979ZM143.499 70V38.2374H151.618V70H143.499ZM158.525 70V38.2374H166.45V43.1739C167.532 41.3552 168.983 39.9695 170.802 39.0168C172.664 38.0642 174.742 37.5878 177.037 37.5878C184.529 37.5878 188.274 41.9398 188.274 50.6436V70H180.155V51.0334C180.155 48.5651 179.679 46.768 178.726 45.6422C177.817 44.5163 176.388 43.9533 174.439 43.9533C172.057 43.9533 170.152 44.7111 168.723 46.2267C167.337 47.699 166.645 49.6693 166.645 52.1376V70H158.525ZM194.472 31.4172V23.4928H203.566V31.4172H194.472ZM194.992 70V38.2374H203.111V70H194.992ZM224.698 70.6495C221.364 70.6495 218.463 69.9783 215.994 68.636C213.526 67.2503 211.621 65.3016 210.279 62.7901C208.936 60.2785 208.265 57.3339 208.265 53.9563C208.265 50.5787 208.936 47.6774 210.279 45.2524C211.621 42.7842 213.526 40.9005 215.994 39.6014C218.463 38.259 221.364 37.5878 224.698 37.5878C226.734 37.5878 228.747 37.9126 230.739 38.5621C232.731 39.2117 234.377 40.121 235.676 41.2902L233.272 46.9412C232.146 45.9453 230.869 45.1875 229.44 44.6678C228.054 44.1482 226.712 43.8884 225.413 43.8884C222.598 43.8884 220.411 44.7761 218.852 46.5515C217.337 48.2836 216.579 50.7735 216.579 54.0213C216.579 57.2257 217.337 59.7589 218.852 61.6209C220.411 63.4396 222.598 64.349 225.413 64.349C226.669 64.349 228.011 64.0892 229.44 63.5695C230.869 63.0499 232.146 62.2704 233.272 61.2312L235.676 66.9472C234.377 68.073 232.709 68.9824 230.674 69.6752C228.682 70.3248 226.69 70.6495 224.698 70.6495ZM260.432 70.6495C256.015 70.6495 252.14 69.6752 248.805 67.7266C245.514 65.778 242.96 63.0499 241.141 59.5424C239.322 55.9915 238.413 51.8345 238.413 47.0712C238.413 42.2645 239.322 38.1075 241.141 34.5999C242.96 31.0924 245.514 28.386 248.805 26.4807C252.096 24.532 255.972 23.5577 260.432 23.5577C264.892 23.5577 268.768 24.532 272.059 26.4807C275.35 28.386 277.905 31.0924 279.724 34.5999C281.542 38.1075 282.452 42.2429 282.452 47.0062C282.452 51.8128 281.542 55.9915 279.724 59.5424C277.905 63.0499 275.35 65.778 272.059 67.7266C268.768 69.6752 264.892 70.6495 260.432 70.6495ZM260.432 63.5046C264.633 63.5046 267.902 62.0539 270.24 59.1526C272.579 56.2514 273.748 52.2242 273.748 47.0712C273.748 41.8748 272.579 37.8476 270.24 34.9897C267.945 32.1317 264.676 30.7027 260.432 30.7027C256.232 30.7027 252.963 32.1317 250.624 34.9897C248.286 37.8476 247.117 41.8748 247.117 47.0712C247.117 52.2242 248.286 56.2514 250.624 59.1526C252.963 62.0539 256.232 63.5046 260.432 63.5046ZM297.951 70L284.181 38.2374H292.82L301.653 60.4517L310.812 38.2374H318.931L304.966 70H297.951ZM335.172 70.6495C331.881 70.6495 329.023 69.9783 326.598 68.636C324.173 67.2936 322.29 65.3882 320.947 62.92C319.605 60.4084 318.934 57.4638 318.934 54.0862C318.934 50.7086 319.605 47.7856 320.947 45.3174C322.29 42.8491 324.173 40.9438 326.598 39.6014C329.023 38.259 331.881 37.5878 335.172 37.5878C338.463 37.5878 341.321 38.259 343.746 39.6014C346.171 40.9438 348.055 42.8491 349.397 45.3174C350.74 47.7856 351.411 50.7086 351.411 54.0862C351.411 57.4638 350.74 60.4084 349.397 62.92C348.055 65.3882 346.171 67.2936 343.746 68.636C341.321 69.9783 338.463 70.6495 335.172 70.6495ZM335.172 64.4789C337.597 64.4789 339.546 63.6128 341.018 61.8807C342.49 60.1053 343.227 57.5071 343.227 54.0862C343.227 50.622 342.49 48.0455 341.018 46.3567C339.546 44.6245 337.597 43.7585 335.172 43.7585C332.747 43.7585 330.799 44.6245 329.326 46.3567C327.854 48.0455 327.118 50.622 327.118 54.0862C327.118 57.5071 327.854 60.1053 329.326 61.8807C330.799 63.6128 332.747 64.4789 335.172 64.4789Z" fill="black"/>
</svg>
