<svg width="205" height="58" viewBox="0 0 205 58" fill="none" xmlns="http://www.w3.org/2000/svg">
<g clip-path="url(#clip0)">
<path d="M12.868 48.2474C11.445 48.2474 10.0867 47.9517 8.79302 47.3603C7.51785 46.7689 6.39977 45.8542 5.43877 44.6159C4.47777 43.3777 3.71082 41.7976 3.13792 39.8756C2.5835 37.9536 2.30629 35.662 2.30629 33.0008C2.30629 30.3396 2.5835 28.048 3.13792 26.126C3.71082 24.204 4.47777 22.6239 5.43877 21.3857C6.39977 20.1475 7.51785 19.2327 8.79302 18.6413C10.0867 18.0499 11.445 17.7542 12.868 17.7542C13.5888 17.7542 14.2818 17.8466 14.9471 18.0314C15.6124 18.2162 16.2407 18.4842 16.8321 18.8353V3.56103H21.7665V48.3583L18.4122 45.9743C17.673 46.7135 16.8321 47.2772 15.8896 47.6653C14.9471 48.0534 13.9399 48.2474 12.868 48.2474ZM13.2007 43.5903C13.9029 43.5903 14.559 43.4701 15.1689 43.2299C15.7787 42.9896 16.3332 42.6477 16.8321 42.2042V23.8251C15.7972 22.8826 14.5867 22.4114 13.2007 22.4114C12.443 22.4114 11.713 22.5777 11.0107 22.9103C10.3084 23.243 9.68009 23.8159 9.12567 24.629C8.58973 25.4237 8.15543 26.5048 7.82278 27.8724C7.49013 29.2215 7.3238 30.931 7.3238 33.0008C7.3238 35.0707 7.49013 36.7894 7.82278 38.1569C8.15543 39.506 8.58973 40.5871 9.12567 41.4003C9.68009 42.195 10.3084 42.7586 11.0107 43.0913C11.713 43.4239 12.443 43.5903 13.2007 43.5903ZM32.8261 48.2474C31.44 48.2474 30.1094 47.9332 28.8342 47.3049C27.5591 46.6765 26.4225 45.7248 25.4246 44.4496C24.4451 43.1744 23.6596 41.5851 23.0683 39.6816C22.4769 37.7781 22.1812 35.5512 22.1812 33.0008C22.1812 30.4505 22.4769 28.2235 23.0683 26.32C23.6596 24.4165 24.4451 22.8272 25.4246 21.552C26.4225 20.2768 27.5591 19.3251 28.8342 18.6967C30.1094 18.0684 31.44 17.7542 32.8261 17.7542C34.2121 17.7542 35.5427 18.0684 36.8179 18.6967C38.0931 19.3251 39.2204 20.2768 40.1999 21.552C41.1978 22.8272 41.9925 24.4165 42.5839 26.32C43.1753 28.2235 43.471 30.4505 43.471 33.0008C43.471 35.5512 43.1753 37.7781 42.5839 39.6816C41.9925 41.5851 41.1978 43.1744 40.1999 44.4496C39.2204 45.7248 38.0931 46.6765 36.8179 47.3049C35.5427 47.9332 34.2121 48.2474 32.8261 48.2474ZM32.8261 43.3962C33.4914 43.3962 34.1475 43.2206 34.7943 42.8695C35.4411 42.4999 36.0232 41.9085 36.5407 41.0954C37.0766 40.2822 37.5017 39.2103 37.8159 37.8797C38.1485 36.5491 38.3149 34.9228 38.3149 33.0008C38.3149 31.0788 38.1485 29.4618 37.8159 28.1496C37.5017 26.819 37.0766 25.7471 36.5407 24.934C36.0232 24.1023 35.4411 23.511 34.7943 23.1598C34.1475 22.7902 33.4914 22.6054 32.8261 22.6054C32.1608 22.6054 31.5047 22.7902 30.8579 23.1598C30.2111 23.511 29.6197 24.1023 29.0837 24.934C28.5663 25.7471 28.1412 26.819 27.8086 28.1496C27.4944 29.4618 27.3373 31.0788 27.3373 33.0008C27.3373 34.9228 27.4944 36.5491 27.8086 37.8797C28.1412 39.2103 28.5663 40.2822 29.0837 41.0954C29.6197 41.9085 30.2111 42.4999 30.8579 42.8695C31.5047 43.2206 32.1608 43.3962 32.8261 43.3962ZM43.9134 17.7542L47.9607 20.6372C48.3673 20.2491 48.82 19.8887 49.319 19.5561C49.818 19.205 50.3447 18.9093 50.8991 18.669C51.4535 18.4103 52.0172 18.207 52.5901 18.0592C53.1815 17.9113 53.7636 17.8374 54.3365 17.8374C56.0367 17.8374 57.4875 18.1516 58.6887 18.7799C59.9085 19.3898 60.8879 20.2953 61.6272 21.4966C62.0153 20.9976 62.4773 20.5263 63.0132 20.0828C63.5676 19.6393 64.159 19.2512 64.7874 18.9185C65.4157 18.5859 66.0718 18.3271 66.7556 18.1423C67.4394 17.939 68.1139 17.8374 68.7792 17.8374C71.7361 17.8374 73.963 18.7707 75.46 20.6372C76.9569 22.4853 77.7054 25.1557 77.7054 28.6486V47.7207H72.771V28.704C72.771 26.8005 72.3829 25.3498 71.6068 24.3518C70.849 23.3539 69.7217 22.8549 68.2248 22.8549C67.3931 22.8549 66.5338 23.0489 65.6467 23.437C64.7781 23.8251 63.9835 24.435 63.2627 25.2666V47.7207H58.3284V28.704C58.3284 26.8005 57.9403 25.3498 57.1641 24.3518C56.4064 23.3539 55.279 22.8549 53.7821 22.8549C52.9505 22.8549 52.1004 23.0489 51.2318 23.437C50.3632 23.8251 49.5685 24.4258 48.8478 25.2389V47.7207H43.9134V17.7542ZM83.0544 13.2357C82.5185 13.2357 82.0288 13.1433 81.5852 12.9585C81.1417 12.7737 80.7628 12.5242 80.4487 12.21C80.1345 11.8958 79.8942 11.5355 79.7279 11.1289C79.5616 10.7038 79.4784 10.2603 79.4784 9.79827C79.4784 9.33626 79.5616 8.90196 79.7279 8.49538C79.8942 8.07033 80.1345 7.70071 80.4487 7.38654C80.7628 7.07237 81.1417 6.82288 81.5852 6.63807C82.0288 6.45327 82.5185 6.36086 83.0544 6.36086C83.5904 6.36086 84.0801 6.45327 84.5237 6.63807C84.9672 6.82288 85.3461 7.07237 85.6602 7.38654C85.9744 7.70071 86.2146 8.07033 86.381 8.49538C86.5473 8.90196 86.6305 9.33626 86.6305 9.79827C86.6305 10.2603 86.5473 10.7038 86.381 11.1289C86.2146 11.5355 85.9744 11.8958 85.6602 12.21C85.3461 12.5242 84.9672 12.7737 84.5237 12.9585C84.0801 13.1433 83.5904 13.2357 83.0544 13.2357ZM80.4209 18.2809H85.3553V47.7207H80.4209V18.2809ZM88.4312 17.7542L92.5894 20.7204C92.996 20.3138 93.458 19.9349 93.9754 19.5838C94.4929 19.2327 95.0381 18.9277 95.611 18.669C96.1839 18.4103 96.766 18.207 97.3574 18.0592C97.9488 17.9113 98.5402 17.8374 99.1316 17.8374C102.088 17.8374 104.315 18.7707 105.812 20.6372C107.309 22.4853 108.058 25.1557 108.058 28.6486V47.7207H103.123V28.704C103.123 26.8005 102.735 25.3498 101.959 24.3518C101.201 23.3539 100.074 22.8549 98.5771 22.8549C97.6901 22.8549 96.7845 23.0767 95.8605 23.5202C94.9549 23.9453 94.1233 24.6198 93.3656 25.5438V47.7207H88.4312V17.7542ZM113.435 13.2357C112.899 13.2357 112.409 13.1433 111.965 12.9585C111.522 12.7737 111.143 12.5242 110.829 12.21C110.515 11.8958 110.274 11.5355 110.108 11.1289C109.942 10.7038 109.859 10.2603 109.859 9.79827C109.859 9.33626 109.942 8.90196 110.108 8.49538C110.274 8.07033 110.515 7.70071 110.829 7.38654C111.143 7.07237 111.522 6.82288 111.965 6.63807C112.409 6.45327 112.899 6.36086 113.435 6.36086C113.97 6.36086 114.46 6.45327 114.904 6.63807C115.347 6.82288 115.726 7.07237 116.04 7.38654C116.354 7.70071 116.595 8.07033 116.761 8.49538C116.927 8.90196 117.011 9.33626 117.011 9.79827C117.011 10.2603 116.927 10.7038 116.761 11.1289C116.595 11.5355 116.354 11.8958 116.04 12.21C115.726 12.5242 115.347 12.7737 114.904 12.9585C114.46 13.1433 113.97 13.2357 113.435 13.2357ZM110.801 18.2809H115.735V47.7207H110.801V18.2809ZM128.07 48.2474C126.536 48.2474 125.113 47.9332 123.801 47.3049C122.489 46.6765 121.343 45.7248 120.364 44.4496C119.403 43.1744 118.645 41.5851 118.091 39.6816C117.555 37.7781 117.287 35.5512 117.287 33.0008C117.287 30.4505 117.555 28.2235 118.091 26.32C118.645 24.4165 119.403 22.8272 120.364 21.552C121.343 20.2768 122.489 19.3251 123.801 18.6967C125.113 18.0684 126.536 17.7542 128.07 17.7542C129.197 17.7542 130.279 17.9298 131.314 18.2809C132.367 18.6321 133.3 19.0479 134.113 19.5284L132.034 23.8251C131.498 23.511 130.879 23.2338 130.177 22.9935C129.493 22.7348 128.791 22.6054 128.07 22.6054C127.349 22.6054 126.647 22.7902 125.963 23.1598C125.28 23.5294 124.66 24.1301 124.106 24.9617C123.57 25.7933 123.136 26.8745 122.803 28.2051C122.489 29.5172 122.332 31.1158 122.332 33.0008C122.332 34.8858 122.489 36.4937 122.803 37.8243C123.136 39.1364 123.57 40.2083 124.106 41.0399C124.66 41.8716 125.28 42.4722 125.963 42.8418C126.647 43.2114 127.349 43.3962 128.07 43.3962C128.791 43.3962 129.493 43.2761 130.177 43.0358C130.879 42.7771 131.498 42.4907 132.034 42.1765L134.113 46.4733C133.3 46.9538 132.367 47.3696 131.314 47.7207C130.279 48.0718 129.197 48.2474 128.07 48.2474ZM142.983 48.2474C141.597 48.2474 140.266 47.9332 138.991 47.3049C137.716 46.6765 136.579 45.7248 135.581 44.4496C134.602 43.1744 133.817 41.5851 133.225 39.6816C132.634 37.7781 132.338 35.5512 132.338 33.0008C132.338 30.4505 132.634 28.2235 133.225 26.32C133.817 24.4165 134.602 22.8272 135.581 21.552C136.579 20.2768 137.716 19.3251 138.991 18.6967C140.266 18.0684 141.597 17.7542 142.983 17.7542C144.369 17.7542 145.7 18.0684 146.975 18.6967C148.25 19.3251 149.377 20.2768 150.357 21.552C151.355 22.8272 152.149 24.4165 152.741 26.32C153.332 28.2235 153.628 30.4505 153.628 33.0008C153.628 35.5512 153.332 37.7781 152.741 39.6816C152.149 41.5851 151.355 43.1744 150.357 44.4496C149.377 45.7248 148.25 46.6765 146.975 47.3049C145.7 47.9332 144.369 48.2474 142.983 48.2474ZM142.983 43.3962C143.648 43.3962 144.304 43.2206 144.951 42.8695C145.598 42.4999 146.18 41.9085 146.698 41.0954C147.234 40.2822 147.659 39.2103 147.973 37.8797C148.305 36.5491 148.472 34.9228 148.472 33.0008C148.472 31.0788 148.305 29.4618 147.973 28.1496C147.659 26.819 147.234 25.7471 146.698 24.934C146.18 24.1023 145.598 23.511 144.951 23.1598C144.304 22.7902 143.648 22.6054 142.983 22.6054C142.318 22.6054 141.662 22.7902 141.015 23.1598C140.368 23.511 139.777 24.1023 139.241 24.934C138.723 25.7471 138.298 26.819 137.965 28.1496C137.651 29.4618 137.494 31.0788 137.494 33.0008C137.494 34.9228 137.651 36.5491 137.965 37.8797C138.298 39.2103 138.723 40.2822 139.241 41.0954C139.777 41.9085 140.368 42.4999 141.015 42.8695C141.662 43.2206 142.318 43.3962 142.983 43.3962ZM151.021 18.2809H156.288L160.446 31.0603L161.721 35.4957L162.969 31.0603L167.044 18.2809H172.228L161.694 49.9107L151.021 18.2809ZM180.293 48.2474C178.907 48.2474 177.577 47.9332 176.301 47.3049C175.026 46.6765 173.89 45.7248 172.892 44.4496C171.912 43.1744 171.127 41.5851 170.536 39.6816C169.944 37.7781 169.648 35.5512 169.648 33.0008C169.648 30.4505 169.944 28.2235 170.536 26.32C171.127 24.4165 171.912 22.8272 172.892 21.552C173.89 20.2768 175.026 19.3251 176.301 18.6967C177.577 18.0684 178.907 17.7542 180.293 17.7542C181.679 17.7542 183.01 18.0684 184.285 18.6967C185.56 19.3251 186.688 20.2768 187.667 21.552C188.665 22.8272 189.46 24.4165 190.051 26.32C190.643 28.2235 190.938 30.4505 190.938 33.0008C190.938 35.5512 190.643 37.7781 190.051 39.6816C189.46 41.5851 188.665 43.1744 187.667 44.4496C186.688 45.7248 185.56 46.6765 184.285 47.3049C183.01 47.9332 181.679 48.2474 180.293 48.2474ZM180.293 43.3962C180.959 43.3962 181.615 43.2206 182.262 42.8695C182.908 42.4999 183.49 41.9085 184.008 41.0954C184.544 40.2822 184.969 39.2103 185.283 37.8797C185.616 36.5491 185.782 34.9228 185.782 33.0008C185.782 31.0788 185.616 29.4618 185.283 28.1496C184.969 26.819 184.544 25.7471 184.008 24.934C183.49 24.1023 182.908 23.511 182.262 23.1598C181.615 22.7902 180.959 22.6054 180.293 22.6054C179.628 22.6054 178.972 22.7902 178.325 23.1598C177.678 23.511 177.087 24.1023 176.551 24.934C176.034 25.7471 175.608 26.819 175.276 28.1496C174.962 29.4618 174.805 31.0788 174.805 33.0008C174.805 34.9228 174.962 36.5491 175.276 37.8797C175.608 39.2103 176.034 40.2822 176.551 41.0954C177.087 41.9085 177.678 42.4999 178.325 42.8695C178.972 43.2206 179.628 43.3962 180.293 43.3962Z" fill="white"/>
<circle cx="197.056" cy="44.1723" r="3.5483" fill="#1F8EFA"/>
</g>
<defs>
<clipPath id="clip0">
<rect width="204.618" height="57.9555" fill="white"/>
</clipPath>
</defs>
</svg>
