<svg width="291" height="49" viewBox="0 0 291 49" fill="none" xmlns="http://www.w3.org/2000/svg">
<path d="M24.7392 0L0 12.2502V37.0173L24.7392 49L49.4784 37.0173V12.383C49.4784 12.383 24.7392 0 24.7392 0ZM22.4907 43.2836L7.50313 36.0251L16.9513 30.3067C19.3801 28.8384 16.8029 25.4907 14.1552 27.0907L4.49814 32.9338V16.8028L22.4907 25.7103V43.2836ZM7.04573 13.4141L22.4896 5.76629V14.8025C22.4896 17.5035 26.9877 17.5055 26.9877 14.8025V5.78825L42.5283 13.5688L24.7502 22.1808L7.04573 13.4141ZM26.9877 25.7252L44.9803 17.0094V32.9348L35.3925 27.1326C32.736 25.5296 30.1675 28.8784 32.592 30.3466L41.9753 36.0241L26.9877 43.2846C26.9877 43.2846 26.9877 25.7252 26.9877 25.7252Z" fill="white"/>
<path d="M82.208 9.2V44H77.696L77.408 39.728C76.704 41.168 75.632 42.32 74.192 43.184C72.784 44.048 71.168 44.48 69.344 44.48C66.048 44.48 63.44 43.392 61.52 41.216C59.632 39.008 58.688 35.952 58.688 32.048C58.688 28.144 59.632 25.088 61.52 22.88C63.44 20.64 66.048 19.52 69.344 19.52C71.104 19.52 72.656 19.92 74 20.72C75.344 21.488 76.368 22.544 77.072 23.888V9.2H82.208ZM70.496 40.352C72.512 40.352 74.112 39.632 75.296 38.192C76.48 36.752 77.072 34.784 77.072 32.288V31.712C77.072 29.216 76.48 27.264 75.296 25.856C74.112 24.416 72.512 23.696 70.496 23.696C68.416 23.696 66.784 24.432 65.6 25.904C64.448 27.344 63.872 29.376 63.872 32C63.872 34.624 64.448 36.672 65.6 38.144C66.784 39.616 68.416 40.352 70.496 40.352ZM95.4515 19.52C99.1955 19.52 102.124 20.624 104.236 22.832C106.348 25.04 107.404 28.096 107.404 32C107.404 35.904 106.348 38.96 104.236 41.168C102.124 43.376 99.1955 44.48 95.4515 44.48C91.7075 44.48 88.7795 43.376 86.6675 41.168C84.5555 38.96 83.4995 35.904 83.4995 32C83.4995 28.096 84.5555 25.04 86.6675 22.832C88.7795 20.624 91.7075 19.52 95.4515 19.52ZM95.4515 23.552C93.2755 23.552 91.5955 24.288 90.4115 25.76C89.2595 27.2 88.6835 29.28 88.6835 32C88.6835 34.72 89.2595 36.816 90.4115 38.288C91.5955 39.728 93.2755 40.448 95.4515 40.448C97.6275 40.448 99.3075 39.712 100.492 38.24C101.676 36.768 102.268 34.688 102.268 32C102.268 29.312 101.676 27.232 100.492 25.76C99.3075 24.288 97.6275 23.552 95.4515 23.552ZM137.665 19.52C139.265 19.52 140.737 19.856 142.081 20.528C143.425 21.168 144.497 22.16 145.297 23.504C146.097 24.848 146.497 26.496 146.497 28.448V44H141.361V29.264C141.361 27.376 140.913 25.984 140.017 25.088C139.121 24.192 137.921 23.744 136.417 23.744C134.657 23.744 133.169 24.384 131.953 25.664C130.769 26.944 130.177 28.704 130.177 30.944V44H125.041V29.264C125.041 27.376 124.593 25.984 123.697 25.088C122.801 24.192 121.601 23.744 120.097 23.744C119.073 23.744 118.081 24.016 117.121 24.56C116.161 25.072 115.377 25.888 114.769 27.008C114.161 28.128 113.857 29.536 113.857 31.232V44H108.721V20H113.281L113.521 23.984C114.321 22.512 115.409 21.408 116.785 20.672C118.161 19.904 119.665 19.52 121.297 19.52C123.089 19.52 124.705 19.936 126.145 20.768C127.617 21.568 128.705 22.752 129.409 24.32C130.145 22.752 131.265 21.568 132.769 20.768C134.305 19.936 135.937 19.52 137.665 19.52ZM151.595 15.968C150.507 15.968 149.659 15.696 149.051 15.152C148.443 14.576 148.139 13.776 148.139 12.752C148.139 11.728 148.443 10.944 149.051 10.4C149.659 9.856 150.507 9.584 151.595 9.584C152.683 9.584 153.515 9.856 154.091 10.4C154.699 10.944 155.003 11.728 155.003 12.752C155.003 13.776 154.699 14.576 154.091 15.152C153.515 15.696 152.683 15.968 151.595 15.968ZM154.139 44H149.003V20H154.139V44ZM169.807 19.52C172.463 19.52 174.623 20.288 176.287 21.824C177.983 23.36 178.831 25.568 178.831 28.448V44H173.695V30.08C173.695 25.856 171.983 23.744 168.559 23.744C166.767 23.744 165.231 24.368 163.951 25.616C162.671 26.832 162.031 28.72 162.031 31.28V44H156.895V20H161.455L161.695 23.984C162.495 22.48 163.599 21.36 165.007 20.624C166.415 19.888 168.015 19.52 169.807 19.52ZM183.926 15.968C182.838 15.968 181.99 15.696 181.382 15.152C180.774 14.576 180.47 13.776 180.47 12.752C180.47 11.728 180.774 10.944 181.382 10.4C181.99 9.856 182.838 9.584 183.926 9.584C185.014 9.584 185.846 9.856 186.422 10.4C187.03 10.944 187.334 11.728 187.334 12.752C187.334 13.776 187.03 14.576 186.422 15.152C185.846 15.696 185.014 15.968 183.926 15.968ZM186.47 44H181.334V20H186.47V44ZM199.786 19.52C205.034 19.52 208.506 21.76 210.202 26.24L205.402 28.16C204.57 25.12 202.698 23.6 199.786 23.6C197.642 23.6 195.978 24.336 194.794 25.808C193.61 27.28 193.018 29.36 193.018 32.048C193.018 34.736 193.61 36.8 194.794 38.24C195.978 39.68 197.642 40.4 199.786 40.4C201.418 40.4 202.73 40 203.722 39.2C204.714 38.4 205.37 37.248 205.69 35.744L210.394 37.328C209.69 39.568 208.442 41.328 206.65 42.608C204.858 43.856 202.602 44.48 199.882 44.48C196.106 44.48 193.146 43.376 191.002 41.168C188.89 38.96 187.834 35.904 187.834 32C187.834 28.096 188.89 25.04 191.002 22.832C193.114 20.624 196.042 19.52 199.786 19.52ZM221.693 19.52C225.437 19.52 228.365 20.624 230.477 22.832C232.589 25.04 233.645 28.096 233.645 32C233.645 35.904 232.589 38.96 230.477 41.168C228.365 43.376 225.437 44.48 221.693 44.48C217.949 44.48 215.021 43.376 212.909 41.168C210.797 38.96 209.741 35.904 209.741 32C209.741 28.096 210.797 25.04 212.909 22.832C215.021 20.624 217.949 19.52 221.693 19.52ZM221.693 23.552C219.517 23.552 217.837 24.288 216.653 25.76C215.501 27.2 214.925 29.28 214.925 32C214.925 34.72 215.501 36.816 216.653 38.288C217.837 39.728 219.517 40.448 221.693 40.448C223.869 40.448 225.549 39.712 226.733 38.24C227.917 36.768 228.509 34.688 228.509 32C228.509 29.312 227.917 27.232 226.733 25.76C225.549 24.288 223.869 23.552 221.693 23.552ZM255.99 20L246.438 44H240.822L231.222 20H236.886L243.654 39.824L250.614 20H255.99ZM265.508 19.52C269.252 19.52 272.18 20.624 274.292 22.832C276.404 25.04 277.46 28.096 277.46 32C277.46 35.904 276.404 38.96 274.292 41.168C272.18 43.376 269.252 44.48 265.508 44.48C261.764 44.48 258.836 43.376 256.724 41.168C254.612 38.96 253.556 35.904 253.556 32C253.556 28.096 254.612 25.04 256.724 22.832C258.836 20.624 261.764 19.52 265.508 19.52ZM265.508 23.552C263.332 23.552 261.652 24.288 260.468 25.76C259.316 27.2 258.74 29.28 258.74 32C258.74 34.72 259.316 36.816 260.468 38.288C261.652 39.728 263.332 40.448 265.508 40.448C267.684 40.448 269.364 39.712 270.548 38.24C271.732 36.768 272.324 34.688 272.324 32C272.324 29.312 271.732 27.232 270.548 25.76C269.364 24.288 267.684 23.552 265.508 23.552Z" fill="white"/>
</svg>
