<svg width="141" height="40" viewBox="0 0 141 40" fill="none" xmlns="http://www.w3.org/2000/svg">
<g clip-path="url(#clip0)">
<path d="M2.41802 12.2228H5.78075V25.2959C5.78075 27.9282 6.80721 29.2443 8.86011 29.2443C9.55281 29.2443 10.1699 29.1058 10.7115 28.8287C11.2657 28.539 11.7317 28.1486 12.1095 27.6574V12.2228H15.4722V32.6637L12.9785 30.8879C12.3992 31.3413 11.6813 31.7443 10.8249 32.097C9.98102 32.4496 9.06162 32.6259 8.06666 32.6259C7.2858 32.6259 6.54902 32.4874 5.85632 32.2103C5.17622 31.9206 4.57798 31.505 4.0616 30.9635C3.55782 30.4093 3.1548 29.7292 2.85253 28.9232C2.56285 28.1045 2.41802 27.1662 2.41802 26.1083V12.2228ZM20.1 22.1032L15.207 12.2228H18.7964L21.9891 18.6838L24.7851 12.2228H28.3746L23.7272 22.1599L28.7524 32.2859H25.163L21.838 25.5982L18.4186 32.2859H14.8292L20.1 22.1032ZM34.457 32.6448C33.4872 32.6448 32.5615 32.4433 31.6799 32.0403C30.8108 31.6373 30.0489 31.0138 29.394 30.17C28.739 29.3262 28.2164 28.2493 27.8259 26.9395C27.4481 25.6297 27.2592 24.068 27.2592 22.2544C27.2592 20.4407 27.4481 18.879 27.8259 17.5692C28.2164 16.2594 28.739 15.1825 29.394 14.3387C30.0489 13.4949 30.8108 12.8714 31.6799 12.4684C32.5615 12.0654 33.4872 11.8639 34.457 11.8639C34.9481 11.8639 35.4204 11.9269 35.8738 12.0528C36.3272 12.1787 36.7555 12.3614 37.1585 12.6007V2.1913H40.5212V32.7204L38.2353 31.0957C37.7315 31.5995 37.1585 31.9836 36.5162 32.2481C35.8738 32.5126 35.1874 32.6448 34.457 32.6448ZM34.6837 29.471C35.1622 29.471 35.6094 29.3892 36.025 29.2254C36.4406 29.0617 36.8184 28.8287 37.1585 28.5264V16.0012C36.4532 15.3589 35.6282 15.0377 34.6837 15.0377C34.1673 15.0377 33.6698 15.1511 33.1912 15.3778C32.7126 15.6045 32.2844 15.9949 31.9066 16.549C31.5413 17.0906 31.2454 17.8274 31.0187 18.7594C30.7919 19.6788 30.6786 20.8438 30.6786 22.2544C30.6786 23.6649 30.7919 24.8362 31.0187 25.7682C31.2454 26.6876 31.5413 27.4244 31.9066 27.9786C32.2844 28.5201 32.7126 28.9043 33.1912 29.131C33.6698 29.3577 34.1673 29.471 34.6837 29.471ZM48.0583 32.6448C47.1137 32.6448 46.2069 32.4307 45.3379 32.0025C44.4688 31.5743 43.6943 30.9257 43.0142 30.0567C42.3467 29.1876 41.8114 28.1045 41.4084 26.8073C41.0053 25.51 40.8038 23.9924 40.8038 22.2544C40.8038 20.5163 41.0053 18.9987 41.4084 17.7014C41.8114 16.4042 42.3467 15.3211 43.0142 14.4521C43.6943 13.583 44.4688 12.9344 45.3379 12.5062C46.2069 12.078 47.1137 11.8639 48.0583 11.8639C49.0029 11.8639 49.9097 12.078 50.7787 12.5062C51.6477 12.9344 52.416 13.583 53.0835 14.4521C53.7636 15.3211 54.3052 16.4042 54.7082 17.7014C55.1112 18.9987 55.3127 20.5163 55.3127 22.2544C55.3127 23.9924 55.1112 25.51 54.7082 26.8073C54.3052 28.1045 53.7636 29.1876 53.0835 30.0567C52.416 30.9257 51.6477 31.5743 50.7787 32.0025C49.9097 32.4307 49.0029 32.6448 48.0583 32.6448ZM48.0583 29.3388C48.5117 29.3388 48.9588 29.2191 49.3996 28.9798C49.8404 28.7279 50.2371 28.3249 50.5898 27.7708C50.955 27.2166 51.2447 26.4861 51.4588 25.5793C51.6855 24.6725 51.7988 23.5642 51.7988 22.2544C51.7988 20.9445 51.6855 19.8425 51.4588 18.9483C51.2447 18.0415 50.955 17.311 50.5898 16.7569C50.2371 16.1901 49.8404 15.7871 49.3996 15.5478C48.9588 15.2959 48.5117 15.1699 48.0583 15.1699C47.6049 15.1699 47.1578 15.2959 46.717 15.5478C46.2761 15.7871 45.8731 16.1901 45.5079 16.7569C45.1552 17.311 44.8656 18.0415 44.6389 18.9483C44.4248 19.8425 44.3177 20.9445 44.3177 22.2544C44.3177 23.5642 44.4248 24.6725 44.6389 25.5793C44.8656 26.4861 45.1552 27.2166 45.5079 27.7708C45.8731 28.3249 46.2761 28.7279 46.717 28.9798C47.1578 29.2191 47.6049 29.3388 48.0583 29.3388ZM55.6142 11.8639L58.3724 13.8286C58.6495 13.5641 58.9581 13.3185 59.2981 13.0918C59.6382 12.8526 59.9971 12.651 60.375 12.4873C60.7528 12.311 61.1369 12.1724 61.5274 12.0717C61.9304 11.9709 62.3271 11.9206 62.7175 11.9206C63.8762 11.9206 64.8649 12.1347 65.6835 12.5629C66.5148 12.9785 67.1823 13.5956 67.6861 14.4143C67.9506 14.0742 68.2654 13.7531 68.6307 13.4508C69.0085 13.1485 69.4115 12.884 69.8397 12.6573C70.2679 12.4306 70.7151 12.2543 71.181 12.1284C71.647 11.9898 72.1067 11.9206 72.5601 11.9206C74.5753 11.9206 76.0929 12.5566 77.1131 13.8286C78.1332 15.0881 78.6433 16.908 78.6433 19.2883V32.2859H75.2806V19.3261C75.2806 18.0289 75.0161 17.0402 74.4871 16.3601C73.9707 15.68 73.2025 15.34 72.1823 15.34C71.6156 15.34 71.0299 15.4722 70.4254 15.7367C69.8334 16.0012 69.2919 16.4168 68.8007 16.9836V32.2859H65.4379V19.3261C65.4379 18.0289 65.1735 17.0402 64.6445 16.3601C64.1281 15.68 63.3599 15.34 62.3397 15.34C61.7729 15.34 61.1936 15.4722 60.6017 15.7367C60.0097 16.0012 59.4681 16.4105 58.977 16.9647V32.2859H55.6142V11.8639ZM82.2887 8.78452C81.9234 8.78452 81.5897 8.72155 81.2874 8.59561C80.9851 8.46966 80.7269 8.29964 80.5128 8.08553C80.2987 7.87142 80.135 7.62583 80.0216 7.34875C79.9083 7.05908 79.8516 6.75681 79.8516 6.44194C79.8516 6.12708 79.9083 5.83111 80.0216 5.55403C80.135 5.26436 80.2987 5.01247 80.5128 4.79836C80.7269 4.58425 80.9851 4.41423 81.2874 4.28828C81.5897 4.16234 81.9234 4.09936 82.2887 4.09936C82.6539 4.09936 82.9876 4.16234 83.2899 4.28828C83.5922 4.41423 83.8504 4.58425 84.0645 4.79836C84.2786 5.01247 84.4423 5.26436 84.5557 5.55403C84.669 5.83111 84.7257 6.12708 84.7257 6.44194C84.7257 6.75681 84.669 7.05908 84.5557 7.34875C84.4423 7.62583 84.2786 7.87142 84.0645 8.08553C83.8504 8.29964 83.5922 8.46966 83.2899 8.59561C82.9876 8.72155 82.6539 8.78452 82.2887 8.78452ZM80.4939 12.2228H83.8567V32.2859H80.4939V12.2228ZM85.9529 11.8639L88.7867 13.8853C89.0637 13.6082 89.3786 13.35 89.7313 13.1107C90.0839 12.8714 90.4554 12.6636 90.8459 12.4873C91.2363 12.311 91.633 12.1724 92.0361 12.0717C92.4391 11.9709 92.8421 11.9206 93.2451 11.9206C95.2602 11.9206 96.7779 12.5566 97.798 13.8286C98.8182 15.0881 99.3283 16.908 99.3283 19.2883V32.2859H95.9655V19.3261C95.9655 18.0289 95.7011 17.0402 95.1721 16.3601C94.6557 15.68 93.8874 15.34 92.8673 15.34C92.2628 15.34 91.6456 15.4911 91.0159 15.7934C90.3988 16.083 89.832 16.5427 89.3156 17.1725V32.2859H85.9529V11.8639ZM102.993 8.78452C102.627 8.78452 102.294 8.72155 101.991 8.59561C101.689 8.46966 101.431 8.29964 101.217 8.08553C101.003 7.87142 100.839 7.62583 100.726 7.34875C100.612 7.05908 100.555 6.75681 100.555 6.44194C100.555 6.12708 100.612 5.83111 100.726 5.55403C100.839 5.26436 101.003 5.01247 101.217 4.79836C101.431 4.58425 101.689 4.41423 101.991 4.28828C102.294 4.16234 102.627 4.09936 102.993 4.09936C103.358 4.09936 103.692 4.16234 103.994 4.28828C104.296 4.41423 104.554 4.58425 104.768 4.79836C104.982 5.01247 105.146 5.26436 105.26 5.55403C105.373 5.83111 105.43 6.12708 105.43 6.44194C105.43 6.75681 105.373 7.05908 105.26 7.34875C105.146 7.62583 104.982 7.87142 104.768 8.08553C104.554 8.29964 104.296 8.46966 103.994 8.59561C103.692 8.72155 103.358 8.78452 102.993 8.78452ZM101.198 12.2228H104.561V32.2859H101.198V12.2228ZM112.967 32.6448C111.921 32.6448 110.952 32.4307 110.057 32.0025C109.163 31.5743 108.382 30.9257 107.715 30.0567C107.06 29.1876 106.543 28.1045 106.166 26.8073C105.8 25.51 105.618 23.9924 105.618 22.2544C105.618 20.5163 105.8 18.9987 106.166 17.7014C106.543 16.4042 107.06 15.3211 107.715 14.4521C108.382 13.583 109.163 12.9344 110.057 12.5062C110.952 12.078 111.921 11.8639 112.967 11.8639C113.735 11.8639 114.472 11.9835 115.177 12.2228C115.895 12.4621 116.531 12.7455 117.085 13.073L115.668 16.0012C115.303 15.7871 114.881 15.5982 114.402 15.4344C113.936 15.2581 113.458 15.1699 112.967 15.1699C112.475 15.1699 111.997 15.2959 111.531 15.5478C111.065 15.7997 110.643 16.209 110.265 16.7757C109.9 17.3425 109.604 18.0793 109.377 18.9861C109.163 19.8803 109.056 20.9697 109.056 22.2544C109.056 23.539 109.163 24.6347 109.377 25.5415C109.604 26.4357 109.9 27.1662 110.265 27.733C110.643 28.2997 111.065 28.709 111.531 28.9609C111.997 29.2128 112.475 29.3388 112.967 29.3388C113.458 29.3388 113.936 29.2569 114.402 29.0932C114.881 28.9169 115.303 28.7216 115.668 28.5075L117.085 31.4358C116.531 31.7632 115.895 32.0466 115.177 32.2859C114.472 32.5252 113.735 32.6448 112.967 32.6448Z" fill="#2F3B52"/>
<circle cx="123.418" cy="30.1887" r="2.41815" fill="#1F8EFA"/>
</g>
<defs>
<clipPath id="clip0">
<rect width="141" height="40" fill="white"/>
</clipPath>
</defs>
</svg>
