<svg width="110" height="24" viewBox="0 0 110 24" fill="none" xmlns="http://www.w3.org/2000/svg">
<path d="M7.73996 6.08264C9.05814 6.08264 10.2146 6.35 11.2095 6.88474C12.2044 7.41947 12.9754 8.16561 13.5225 9.12315C14.0821 10.0807 14.3619 11.2061 14.3619 12.4994C14.3619 13.7306 14.1008 14.8498 13.5785 15.857C13.0562 16.8519 12.3101 17.6416 11.3401 18.226C10.3701 18.8105 9.21358 19.1027 7.87053 19.1027C7.01247 19.1027 6.15441 19.0592 5.29636 18.9722C4.45073 18.8851 3.64863 18.767 2.89006 18.6178V6.56763C3.66107 6.44327 4.45073 6.33135 5.25905 6.23187C6.06737 6.13238 6.89434 6.08264 7.73996 6.08264ZM7.79592 8.50759C7.42285 8.50759 7.03113 8.52624 6.62075 8.56355C6.21038 8.60085 5.83109 8.6506 5.48289 8.71277V16.4726C5.85596 16.5472 6.24146 16.6032 6.6394 16.6405C7.04978 16.6654 7.43529 16.6778 7.79592 16.6778C8.61667 16.6778 9.31928 16.5037 9.90376 16.1555C10.4882 15.7949 10.9359 15.3037 11.2468 14.6819C11.5577 14.0601 11.7131 13.3637 11.7131 12.5927C11.7131 11.7968 11.5577 11.0942 11.2468 10.4849C10.9359 9.87551 10.4882 9.39673 9.90376 9.04854C9.31928 8.6879 8.61667 8.50759 7.79592 8.50759ZM19.7229 6.10129C20.6183 6.10129 21.4577 6.26295 22.2412 6.58628C23.0246 6.89717 23.7148 7.34485 24.3117 7.92933C24.921 8.50137 25.3936 9.18533 25.7293 9.98121C26.0775 10.7771 26.2516 11.66 26.2516 12.63C26.2516 13.6 26.0775 14.4829 25.7293 15.2788C25.3936 16.0747 24.921 16.7648 24.3117 17.3493C23.7148 17.9214 23.0246 18.369 22.2412 18.6924C21.4577 19.0033 20.6183 19.1587 19.7229 19.1587C18.8276 19.1587 17.9819 19.0033 17.1861 18.6924C16.4026 18.369 15.7062 17.9214 15.0969 17.3493C14.5 16.7648 14.0274 16.0747 13.6792 15.2788C13.3435 14.4829 13.1756 13.6 13.1756 12.63C13.1756 11.66 13.3435 10.7771 13.6792 9.98121C14.0274 9.18533 14.5 8.50137 15.0969 7.92933C15.7062 7.34485 16.4026 6.89717 17.1861 6.58628C17.9819 6.26295 18.8276 6.10129 19.7229 6.10129ZM19.7229 8.54489C18.9768 8.54489 18.3053 8.72521 17.7084 9.08584C17.1239 9.44648 16.6638 9.93147 16.328 10.5408C15.9922 11.1502 15.8244 11.8466 15.8244 12.63C15.8244 13.401 15.9922 14.0974 16.328 14.7192C16.6638 15.3285 17.1239 15.8135 17.7084 16.1742C18.3053 16.5224 18.9768 16.6965 19.7229 16.6965C20.4691 16.6965 21.1344 16.5224 21.7189 16.1742C22.3033 15.8135 22.7634 15.3285 23.0992 14.7192C23.435 14.0974 23.6029 13.401 23.6029 12.63C23.6029 11.8466 23.435 11.1502 23.0992 10.5408C22.7634 9.93147 22.3033 9.44648 21.7189 9.08584C21.1344 8.72521 20.4691 8.54489 19.7229 8.54489ZM38.4771 6.28783V18.8789H35.8843V11.2683L32.6759 14.7751H31.9298L28.6841 11.2683V18.8789H26.0912V6.28783H26.9679L32.3028 11.8466L37.6004 6.28783H38.4771ZM46.0579 16.5472V18.8789H39.2494V16.5472H41.3572V8.71277H39.2494V6.38109H46.0579V8.71277H43.95V16.5472H46.0579ZM57.7611 6.38109V18.9722H56.8284L49.423 11.3429V18.8789H46.8301V6.28783H47.7628L55.1682 14.029V6.38109H57.7611ZM65.3418 16.5472V18.8789H58.5333V16.5472H60.6411V8.71277H58.5333V6.38109H65.3418V8.71277H63.234V16.5472H65.3418ZM71.3184 6.10129C72.1018 6.10129 72.7796 6.21321 73.3516 6.43705C73.9237 6.64846 74.4211 6.9407 74.8439 7.31377V9.92525C74.5454 9.70141 74.2345 9.48378 73.9112 9.27238C73.5879 9.06097 73.221 8.88687 72.8107 8.75008C72.4127 8.61329 71.9402 8.54489 71.393 8.54489C70.6469 8.54489 69.9691 8.72521 69.3598 9.08584C68.7504 9.44648 68.2654 9.93147 67.9048 10.5408C67.5442 11.1502 67.3639 11.8466 67.3639 12.63C67.3639 13.401 67.5442 14.0974 67.9048 14.7192C68.2654 15.3285 68.7504 15.8135 69.3598 16.1742C69.9691 16.5224 70.6469 16.6965 71.393 16.6965C72.2262 16.6965 72.9226 16.5721 73.4822 16.3234C74.0542 16.0622 74.5703 15.7451 75.0304 15.3721V17.8903C74.6076 18.2758 74.0791 18.5867 73.4449 18.8229C72.8107 19.0468 72.1018 19.1587 71.3184 19.1587C70.423 19.1587 69.5774 19.0033 68.7815 18.6924C67.9856 18.369 67.283 17.9214 66.6737 17.3493C66.0643 16.7648 65.5856 16.0747 65.2374 15.2788C64.8892 14.4829 64.7151 13.6 64.7151 12.63C64.7151 11.66 64.8892 10.7771 65.2374 9.98121C65.5856 9.18533 66.0643 8.50137 66.6737 7.92933C67.283 7.34485 67.9856 6.89717 68.7815 6.58628C69.5774 6.26295 70.423 6.10129 71.3184 6.10129Z" fill="white"/>
<path d="M80.3914 6.10129C81.2868 6.10129 82.1262 6.26295 82.9096 6.58628C83.6931 6.89717 84.3833 7.34485 84.9802 7.92933C85.5895 8.50137 86.0621 9.18533 86.3978 9.98121C86.746 10.7771 86.9201 11.66 86.9201 12.63C86.9201 13.6 86.746 14.4829 86.3978 15.2788C86.0621 16.0747 85.5895 16.7648 84.9802 17.3493C84.3833 17.9214 83.6931 18.369 82.9096 18.6924C82.1262 19.0033 81.2868 19.1587 80.3914 19.1587C79.4961 19.1587 78.6504 19.0033 77.8546 18.6924C77.0711 18.369 76.3747 17.9214 75.7654 17.3493C75.1685 16.7648 74.6959 16.0747 74.3477 15.2788C74.0119 14.4829 73.8441 13.6 73.8441 12.63C73.8441 11.66 74.0119 10.7771 74.3477 9.98121C74.6959 9.18533 75.1685 8.50137 75.7654 7.92933C76.3747 7.34485 77.0711 6.89717 77.8546 6.58628C78.6504 6.26295 79.4961 6.10129 80.3914 6.10129ZM80.3914 8.54489C79.6453 8.54489 78.9738 8.72521 78.3768 9.08584C77.7924 9.44648 77.3323 9.93147 76.9965 10.5408C76.6607 11.1502 76.4928 11.8466 76.4928 12.63C76.4928 13.401 76.6607 14.0974 76.9965 14.7192C77.3323 15.3285 77.7924 15.8135 78.3768 16.1742C78.9738 16.5224 79.6453 16.6965 80.3914 16.6965C81.1376 16.6965 81.8029 16.5224 82.3873 16.1742C82.9718 15.8135 83.4319 15.3285 83.7677 14.7192C84.1035 14.0974 84.2713 13.401 84.2713 12.63C84.2713 11.8466 84.1035 11.1502 83.7677 10.5408C83.4319 9.93147 82.9718 9.44648 82.3873 9.08584C81.8029 8.72521 81.1376 8.54489 80.3914 8.54489ZM97.6347 6.38109L91.8148 18.9722H90.5277L84.7078 6.38109H87.7483L91.1619 14.6446L94.5942 6.38109H97.6347ZM101.97 6.10129C102.865 6.10129 103.705 6.26295 104.488 6.58628C105.271 6.89717 105.962 7.34485 106.558 7.92933C107.168 8.50137 107.64 9.18533 107.976 9.98121C108.324 10.7771 108.498 11.66 108.498 12.63C108.498 13.6 108.324 14.4829 107.976 15.2788C107.64 16.0747 107.168 16.7648 106.558 17.3493C105.962 17.9214 105.271 18.369 104.488 18.6924C103.705 19.0033 102.865 19.1587 101.97 19.1587C101.074 19.1587 100.229 19.0033 99.4329 18.6924C98.6494 18.369 97.953 17.9214 97.3437 17.3493C96.7468 16.7648 96.2742 16.0747 95.926 15.2788C95.5903 14.4829 95.4224 13.6 95.4224 12.63C95.4224 11.66 95.5903 10.7771 95.926 9.98121C96.2742 9.18533 96.7468 8.50137 97.3437 7.92933C97.953 7.34485 98.6494 6.89717 99.4329 6.58628C100.229 6.26295 101.074 6.10129 101.97 6.10129ZM101.97 8.54489C101.224 8.54489 100.552 8.72521 99.9552 9.08584C99.3707 9.44648 98.9106 9.93147 98.5748 10.5408C98.2391 11.1502 98.0712 11.8466 98.0712 12.63C98.0712 13.401 98.2391 14.0974 98.5748 14.7192C98.9106 15.3285 99.3707 15.8135 99.9552 16.1742C100.552 16.5224 101.224 16.6965 101.97 16.6965C102.716 16.6965 103.381 16.5224 103.966 16.1742C104.55 15.8135 105.01 15.3285 105.346 14.7192C105.682 14.0974 105.85 13.401 105.85 12.63C105.85 11.8466 105.682 11.1502 105.346 10.5408C105.01 9.93147 104.55 9.44648 103.966 9.08584C103.381 8.72521 102.716 8.54489 101.97 8.54489Z" fill="#6EA78C"/>
</svg>
